<?xml version="1.0" encoding="UTF-8"?> <svg xmlns="http://www.w3.org/2000/svg" width="7789" height="4309" viewBox="0 0 7789 4309" fill="none"> <path opacity="0.59" d="M5931.09 3988.56L6384.73 3829.55L6311.22 3536.89L6203.85 3664.45L6167.82 3708.04L6169.77 3709.21L6168.29 3709.77L6175.11 3718.52L6164.4 3712.18L6163.72 3712.98L6163.43 3712.54L5931.09 3988.56ZM294.689 2416.69L415.52 2897.74L743.077 2682.24L294.689 2416.69ZM1182.24 2942.33L747.276 2684.73L420.735 2899.55C616.004 2910.28 811.189 2921.34 1006.37 2932.4L1008.32 2932.51L1018.73 2933.09L1020.56 2933.2C1074.46 2936.23 1128.35 2939.28 1182.24 2942.33ZM410.216 2898.97L286.27 2405.52C440.216 2496.64 594.144 2587.8 748.057 2678.97L1086.46 2456.33L1021.7 2155.31L1019.23 2155.17L1012.26 2154.78L1018.2 2152.7L1013.68 2150.04L1020.65 2150.44L1023.1 2150.57L1259.8 1869.35L1061.69 1616.51L456.166 1830.04L461.555 1823.88L862.675 1366.38L860.486 1366.25L863.865 1364.03L861.886 1361.51L864.079 1361.63L740.902 871.269L739.022 871.933L740.611 870.12L740.126 868.187L741.563 869.033L744.412 865.783L1147.12 406.463L1144.74 403.419L1149.56 403.69L1927.38 447.385L1927.15 446.327L2216 335.283L2314.99 0.000292322L2320.06 0.286644L2221.05 335.637L2418.48 474.972L2420.1 475.063L2421.36 475.132L2422.16 474.158L2424.17 475.29L2929.63 503.679L2934.44 503.955L2936.95 504.105L2940.13 504.273L3712.25 547.65L3712.01 546.597L4000.88 435.55L4099.85 100.274L4104.92 100.557L4005.94 435.898L4203.36 575.237L4204.98 575.325L4206.24 575.401L4207.04 574.423L4209.06 575.55L4714.49 603.951L4719.29 604.227L4721.84 604.36L4724.99 604.546L5497.15 647.917L5496.91 646.847L5785.78 535.811L5884.75 200.535L5889.77 200.822L5790.79 536.165L5988.22 675.507L5989.83 675.595L5991.09 675.667L5991.9 674.696L5993.92 675.822L6499.38 704.21L6504.19 704.485L6506.7 704.63L6509.88 704.801L7282 748.184L7281.8 747.116L7573.55 634.95L7788.33 786.482L7784.59 790.427L7571.94 640.348L7290.21 748.644L7295.5 748.944L7288.28 751.5L7396.06 1250.05L6909.86 1219.18L6912.34 1222.31L6906.67 1218.98L6904.41 1218.81L6902.24 1220.25C6936.04 1382.3 6969.68 1544.39 7003.34 1706.5L7005.72 1706.64L7012.66 1707.02L7006.79 1709.11L7011.23 1711.78L7004.31 1711.36L7001.93 1711.23C6924.57 1804.69 6847.2 1898.13 6769.87 1991.55C6794.76 2090.41 6819.62 2189.32 6844.43 2288.19L7583.81 2029.05C7353.88 2180.27 7124.13 2331.79 6894.09 2482.79C7028.69 2654.6 7162.88 2826.74 7297.21 2998.72L7284.51 2991.23L6732.31 2665.55C6625.16 2787.26 6501.2 2928.03 6487.17 2943.99C6507.98 3043.93 6528.72 3143.9 6549.44 3243.84L6551.85 3243.96L6558.83 3244.39L6552.94 3246.45L6557.37 3249.1L6550.46 3248.71L6548.04 3248.59C6470.37 3342.4 6392.74 3436.21 6315.1 3530.01C6340.11 3629.22 6365.05 3728.47 6389.94 3827.71L7129.28 3568.56C6899.17 3719.97 6669.18 3871.63 6438.89 4022.75L6439.38 4024.7L6436.19 4024.53L5928.34 3995.99L5997.07 4308.1C5899.63 4166.75 5802.35 4025.29 5704.67 3884.09C5529.04 4009.98 5353.53 4136.12 5177.94 4262.1L5189.03 4248.89L5424.84 3967.72L4654.53 3924.45L4651.34 3924.27L4648.83 3924.13L4644.02 3923.84L4143.43 3895.73L4212.18 4207.82C4114.75 4066.47 4017.48 3925.01 3919.83 3783.82C3744.15 3909.7 3568.66 4035.84 3393.07 4161.85L3404.17 4148.6L3639.96 3867.44L2869.63 3824.17L2866.47 3824L2863.94 3823.86L2859.11 3823.57L2358.55 3795.45L2427.3 4107.55C2329.88 3966.22 2232.61 3824.76 2134.95 3683.55C1959.29 3809.45 1783.77 3935.57 1608.18 4061.57L1619.3 4048.35L1855.09 3767.19L1084.75 3723.9L1081.58 3723.72L1079.05 3723.58L1074.24 3723.33L564.72 3694.69L557.767 3694.31L568.096 3690.67L805.937 3408.1L607.359 3153.95C404.906 3225.32 202.451 3296.69 -0.00183984 3368.06L5.43143 3361.89L408.8 2903.71L406.628 2903.59L410.001 2901.37L408.036 2898.85L410.216 2898.97ZM752.259 2681.45L1188.62 2939.93L1143.55 2723L1126.71 2646.65L1122.11 2648.27L1124.83 2645.19L1123.45 2644.32L1126 2643.42L1125.02 2638.99L1125.88 2639.54L1087.45 2460.93L752.259 2681.45ZM1199.56 2946.41L1202.77 2948.31L1198.73 2948.08L1219.17 3040.78L1468.44 2861.89L1463.22 2858.59L1338.94 2780.22L1202.04 2943.45L1204.18 2943.57L1201 2944.7L1199.56 2946.41ZM1091.32 2453.13L1092.82 2452.15C1105.7 2514 1118.56 2575.85 1131.42 2637.7L1133.12 2635.76C1159.68 2605.58 1273.98 2475.74 1373.76 2362.42L1027.91 2158.44L1091.32 2453.13ZM1134.2 2651.1L1149.66 2725.5L1197.39 2941.99L1335.09 2777.8L1134.2 2651.1ZM1185.62 2950.11C994.701 3017.4 803.776 3084.7 612.86 3152.01L809.574 3403.78L846.4 3360.02L954.821 3229.01L953.878 3225.25L956.599 3226.87L1185.62 2950.11ZM413.226 2905.49L14.7088 3358.15L604.47 3150.25L413.226 2905.49ZM609.975 3148.32L1180.85 2947.08L419.314 2904.3L609.975 3148.32ZM849.252 3363.65L809.11 3412.17L808.777 3411.74L576.47 3687.75L1030.11 3528.74L956.603 3236.1L849.252 3363.65ZM748.544 879.362L869.379 1360.4L1196.93 1144.91L748.544 879.362ZM1636.1 1405L1201.13 1147.4L874.586 1362.22L1636.1 1405ZM743.683 870.291C896.446 960.715 1049.2 1051.16 1201.94 1141.62L1543.17 917.129L1544.3 913.351L1344.55 658.421L743.683 870.291ZM1206.14 1144.1C1351.6 1230.25 1497.05 1316.41 1642.48 1402.59L1594.2 1170.17L1580.61 1108.6L1577.42 1106.6L1579.97 1105.7L1578.99 1101.28L1580.01 1101.92L1542.76 922.644L1206.14 1144.1ZM1653.28 1408.99L1656.64 1410.98L1652.8 1410.76L1673.14 1503.05L1922.42 1324.15L1917.19 1320.85L1792.92 1242.49L1655.7 1406.1L1658.04 1406.24L1654.57 1407.46L1653.28 1408.99ZM1547.31 917.871C1560.2 979.771 1573.08 1041.68 1585.96 1103.59L2026.64 948.325L1547.31 917.871ZM1587.97 1113.25L1600.57 1173.87L1651.36 1404.26L1789.07 1240.06L1587.97 1113.25ZM1639.48 1412.78L1067.2 1614.58L1263.43 1865.03L1364.57 1744.87L1409.58 1690.5L1408.38 1685.73L1411.84 1687.77L1639.48 1412.78ZM867.087 1368.15L470.8 1820.16L1058.8 1612.82L867.087 1368.15ZM1064.3 1610.88L1634.71 1409.74L873.184 1366.96L1064.3 1610.88ZM1369.48 1746.04L1263.49 1874.06L1262.65 1872.98L1030.98 2148.22L1484.62 1989.22L1411.11 1696.58L1369.48 1746.04ZM1935.57 447.843L1940.89 448.141L1933.64 450.701L2038.6 936.19L2214.42 340.651L1935.57 447.843ZM1922.33 454.684L1350.05 656.478L1547.1 907.96L1922.33 454.684ZM1149.94 410.059L753.657 862.055L1341.65 654.724L1149.94 410.059ZM1347.16 652.782L1917.56 451.65L1156.04 408.872L1347.16 652.782ZM1928.8 453.954C1802.11 607.038 1675.4 760.097 1548.66 913.148L2034.75 944.033L1928.8 453.954ZM2219.45 341.074L2043.76 936.161L2416.98 480.483L2219.45 341.074ZM2524.47 976.171L2048.33 949.621L2381.08 1146.53L2524.47 976.171ZM2420.67 483.091L2042.75 944.512L2524.61 971.382L2525.49 970.382L2525.01 968.452L2526.44 969.3L2528.39 967.075L2422.08 484.087L2420.67 483.091ZM2433.03 486.378L2429.95 489.639L2428.67 488.738L2532.84 961.999L2641.21 838.402L2773.93 687.026L2433.03 486.378ZM1417.43 1699.37C1441.59 1795.36 1465.7 1891.38 1489.81 1987.4L1749.88 1896.24C1639.09 1830.58 1528.25 1764.98 1417.43 1699.37ZM1490.89 1991.73L1535.34 2168.81L1537.3 2176.6L1537.64 2177.95L1865.19 1962.45L1759.29 1899.74L1758.77 1901.52L1756.86 1907.98L1755.76 1902.98L1751.79 1907.69L1753.7 1901.22L1754.23 1899.42L1490.89 1991.73ZM2304.36 2222.54L1869.49 1965C1760.65 2036.65 1651.79 2108.26 1542.86 2179.76C1744.46 2190.83 1945.97 2202.27 2147.48 2213.67L2152.19 2213.94L2153.21 2214C2202.66 2216.79 2252.12 2219.58 2301.56 2222.39L2304.36 2222.54ZM1532.34 2179.18L1485.7 1993.55L1035.69 2151.28L1532.34 2179.18ZM1418.09 1691.48C1529.68 1757.53 1641.26 1823.6 1752.83 1889.67L1669.39 1511.14L1432.11 1681.41L1423.83 1687.35L1418.09 1691.48ZM1765.4 1897.11L1870.17 1959.17L2191.57 1747.73L1765.4 1897.11ZM1874.48 1961.72L2308.26 2218.66C2286.97 2122.15 2265.69 2025.63 2244.39 1929.12L2241.04 1930.3L2243.92 1927.01L2243.89 1926.87L2240.7 1924.86L2243.25 1923.96L2242.28 1919.55L2244.62 1921.02L2205.6 1743.75C2095.21 1816.38 1984.85 1889.07 1874.48 1961.72ZM2320.4 2225.86L2324.89 2228.52L2317.94 2228.13L2315.93 2228.02L2315.87 2228.09L2336.43 2321.32L2585.71 2142.43L2580.48 2139.13L2456.2 2060.76L2319.79 2223.41L2326.3 2223.78L2320.4 2225.86ZM1766.26 1890.5L2204.13 1737.03L2202.14 1727.98L2067.53 1532.76L1766.26 1890.5ZM2215.1 1733.18L2229.17 1728.25L2215.89 1736.98L2216.25 1738.69L2216.46 1739.01L2216.32 1739.06C2228.64 1798.17 2240.93 1857.29 2253.22 1916.41L2397.22 1752.17L2491.06 1645.13L2150.6 1444.72L2214.09 1732.91L2214.92 1732.37L2215.1 1733.18ZM2255.08 1925.35L2255.62 1927.95L2455.82 2054.21L2693.55 1770.74L2255.08 1925.35ZM2257.13 1935.22C2276.89 2030.31 2296.62 2125.4 2316.35 2220.5L2452.36 2058.33L2257.13 1935.22ZM2255.53 1954.39L2250.7 1931.17L2250.36 1930.95L2255.53 1954.39ZM2221.7 1791.58L2211.22 1741.16L2211.05 1740.91L2210.58 1741.07L2221.7 1791.58ZM1377.33 2358.36L1423.11 2306.37L1430.71 2297.74L1438.15 2289.29L1445.42 2281.04L1452.49 2273L1459.36 2265.2L1466.02 2257.64L1530.92 2183.92L1528.74 2183.8L1034.27 2156.02L1377.33 2358.36ZM2307.74 2230.32C2116.86 2297.6 1925.97 2364.88 1735.09 2432.18C1799.9 2515.17 1864.68 2598.19 1929.49 2681.17L2071.65 2512.26L2070.93 2511.84L2072.4 2510.78L2071.15 2505.78L2075.12 2508.13L2075.45 2507.75L2279.54 2264.39L2307.74 2230.32ZM1729.47 2434.16L1589.5 2483.51L1920.63 2678.82L1729.47 2434.16ZM1535.34 2185.7L1381.28 2360.7L1582.94 2479.63L1584.61 2473.98L1585.71 2478.97L1589.69 2474.22L1588.21 2479.24L1726.58 2430.47L1535.34 2185.7ZM1377.7 2364.75L1136.83 2638.36L1577.95 2482.86L1377.7 2364.75ZM1732.21 2428.49L2302.96 2227.29L1541.44 2184.51C1605.1 2265.78 1668.68 2347.12 1732.21 2428.49ZM1935.21 2688.5L1935.99 2689.5L1936.85 2690.01L1936.49 2690.14L1942.59 2697.94L1932.35 2691.9L1702.08 2965.36L2147.38 2809.28L2074.51 2519.2L1937.22 2685.14L1938.42 2684.69L1935.21 2688.5ZM2282.97 2267.32C2220.21 2343.13 2157.48 2418.94 2094.74 2494.76L2331.65 2324.75L2311.49 2233.32L2282.97 2267.32ZM2083.74 2508.05L2080.86 2511.53C2192.8 2577.79 2304.72 2644.07 2416.64 2710.35L2332.67 2329.41L2095.41 2499.68L2087.12 2505.62L2083.74 2508.05ZM962.302 3236.43C986.696 3333.23 1011.01 3430.07 1035.32 3526.93L1297.57 3434.98L963.096 3236.9L962.302 3236.43ZM1036.4 3531.23L1080.85 3708.34L1082.79 3716.12L1083.13 3717.47L1107.42 3701.47L1410.68 3501.96L1304.78 3439.25L1302.88 3445.71L1301.78 3440.7L1297.82 3445.44L1299.72 3438.94L1036.4 3531.23ZM1849.86 3762.05L1414.99 3504.53C1306.15 3576.18 1197.28 3647.78 1088.35 3719.3L1849.86 3762.05ZM1077.83 3718.7L1031.2 3533.07L581.188 3690.81L1077.83 3718.7ZM962.512 3230.36C1074.82 3296.84 1187.1 3363.33 1299.38 3429.83L1215.41 3048.87L978.135 3219.15L969.857 3225.09L962.512 3230.36ZM1309.19 3435.64L1415.67 3498.69L1742.27 3283.83L1309.19 3435.64ZM1419.97 3501.23L1856.24 3759.66L1795.8 3468.78L1792.36 3466.61L1790.59 3468.64L1790.12 3466.47L1784.86 3468.31L1788.52 3464.2L1786.61 3462.98L1789.17 3462.08L1750.75 3283.49C1640.47 3356.05 1530.24 3428.67 1419.97 3501.23ZM1863.61 3764.02L1870.38 3768.03L1863.44 3767.65L1860.71 3767.51L1634.33 4037.41L2131.61 3680.55C2088.46 3653.32 2045.3 3626.1 2002.12 3598.85L1863.61 3764.02ZM1304.19 3432.68L1754.44 3274.86L1754.46 3274.85L1754.43 3274.83L1754.44 3274.86L1304.19 3432.68ZM1760.59 3272.71L1774.67 3267.77L1762.03 3276.09L1762.49 3276.76L1761.53 3277.07L1764.14 3288.9L1763.89 3288.54C1775.32 3343.45 1786.74 3398.33 1798.16 3453.24L1801.02 3449.98L2036.53 3182.49L1696.51 2981.94L1760.4 3271.91L1760.43 3271.9L1760.59 3272.71ZM1756.52 3279.71L1755.61 3280.31L1785.63 3419.82L1756.52 3279.71ZM1800.17 3462.93L1800.72 3465.57L2001.72 3592.32L2240.31 3307.86L1800.17 3462.93ZM1802.23 3472.84C1822.07 3568.32 1841.89 3663.81 1861.7 3759.3L1998.28 3596.43C1932.93 3555.22 1867.58 3514.02 1802.23 3472.84ZM2385.02 1148.86L2385.92 1149.39L2392.4 1146.97L2388.88 1151.14L2390.83 1152.29L2386.57 1153.88L2155.64 1428.13L2601.24 1271.94L2553.18 1080.62L2527.73 979.306L2385.02 1148.86ZM2369.51 1160.27L2368.9 1160.5L2361.59 1163.24L2354.28 1165.98L2346.97 1168.71L2339.66 1171.45L2332.35 1174.19L2325.05 1176.92L2317.74 1179.66L2310.43 1182.4L2303.12 1185.14L2295.81 1187.87L2288.5 1190.61L2281.2 1193.35L2109.4 1257.7L2146.35 1425.41L2369.51 1160.27ZM2377.61 1150.65L2042.07 952.097L2108.43 1253.33L2305.21 1179.62L2375.33 1153.36L2377.61 1150.65ZM2104.26 1259.62L1937.7 1322L1930.73 1324.62L2068.56 1524.51L2138.96 1440.92L2138.32 1438.03L2135.85 1437.89L2128.89 1437.5L2134.81 1435.42L2130.29 1432.76L2137.25 1433.15L2139.72 1433.29L2141.94 1430.66L2104.26 1259.62ZM1762.91 1887.47L2064.86 1528.9L1927.56 1329.77L1762.91 1887.47ZM1930.45 1319.99L2103.3 1255.25L2037.6 957.044L1931.04 1317.97L1930.45 1319.99ZM2140.18 1446.48L2071.22 1528.37L2198.98 1713.65L2140.18 1446.48ZM2031.11 951.469L1588.65 1107.36L1792.53 1235.94L2031.11 951.469ZM1796.38 1238.36L1925.38 1319.71L1925.97 1317.71L2032.51 956.805L1796.38 1238.36ZM1668.36 1506.48L1648.2 1415.04L1425.15 1681.02L1668.36 1506.48ZM1674.17 1507.7L1757.84 1887.19L1922.48 1329.51L1674.17 1507.7ZM1915.23 2698.11L1914.92 2698.22L1907.62 2700.96L1900.3 2703.7L1893 2706.43L1885.69 2709.17L1878.38 2711.91L1871.07 2714.65L1863.76 2717.38L1856.46 2720.12L1849.15 2722.86L1655.42 2795.43L1692.33 2962.95L1915.23 2698.11ZM1923.49 2688.29L1588.1 2489.83L1654.46 2791.05L1705.88 2771.8L1921.05 2691.2L1923.49 2688.29ZM1923.98 2694.83L1923.85 2694.88L1923.84 2694.88L1751.31 2899.87L1923.98 2694.83ZM1650.28 2797.35L1483.72 2859.74L1476.75 2862.36L1614.58 3062.24L1685.12 2978.47L1684.46 2975.37L1681.99 2975.24L1675.03 2974.85L1680.96 2972.76L1676.45 2970.1L1683.41 2970.49L1685.86 2970.63L1687.92 2968.18L1650.28 2797.35ZM1308.94 3425.19L1610.88 3066.63L1473.58 2867.51C1418.77 3053.41 1363.92 3239.31 1308.94 3425.19ZM1476.47 2857.73L1649.32 2792.98L1583.63 2494.77L1476.47 2857.73ZM1686.33 2984.06L1617.24 3066.1L1743.31 3248.93L1686.33 2984.06ZM1613.54 3070.49L1310.37 3430.51L1749.29 3276.67L1746.36 3263.11L1613.54 3070.49ZM1752.8 3262.7L1710.94 3072.69L1751.38 3260.65L1752.8 3262.7ZM1577.13 2489.19L1134.67 2645.08L1338.56 2773.67L1577.13 2489.19ZM1342.4 2776.09L1471.4 2857.45L1471.99 2855.44L1578.54 2494.53L1342.4 2776.09ZM1214.38 3044.21L1194.23 2952.77L971.16 3218.75L1214.38 3044.21ZM1220.2 3045.44L1303.86 3424.92L1468.5 2867.25L1220.2 3045.44ZM2707.91 1765.68L3004.83 1941.4L3037.74 1960.76L2846.57 1716.78L2707.91 1765.68ZM3052.35 1969.51L3054.11 1970.55L3052.82 1971.04L3059.74 1979.88L3048.99 1973.55L3048.36 1974.32L3048.2 1974.12L2817.72 2247.84L3269.49 2089.48L3196 1796.84L3154.36 1846.31L3052.35 1969.51ZM3039.17 1976.15L2990.52 1994.37L2772.69 2075.97L2810.55 2247.78L3039.17 1976.15ZM3042.82 1970.05L2997.55 1943.26L2705.6 1771.42L2771.73 2071.59L3042.82 1970.05ZM2767.55 2077.89L2600.98 2140.28L2594.02 2142.89L2731.85 2342.78L2805.34 2255.51L2804.1 2255.44L2797.14 2255.05L2803.07 2252.97L2798.56 2250.31L2805.52 2250.7L2805.63 2250.71L2767.55 2077.89ZM2426.2 2705.74L2728.15 2347.17L2590.85 2148.05L2426.2 2705.74ZM2593.73 2138.27L2766.59 2073.52L2700.89 1775.3L2594.33 2136.24L2593.73 2138.27ZM2807.51 2259.95L2734.51 2346.64L2867.73 2539.83L2807.51 2259.95ZM2730.81 2351.03L2427.64 2711.04L2695.63 2617.11L2871.12 2555.59L2870.78 2554.02L2867.62 2549.43L2867.6 2549.4L2730.81 2351.03ZM2419.05 2721.25L2415.08 2725.96L2416.99 2719.49L2416.99 2719.48L2153.68 2811.77C2169.26 2873.85 2184.84 2935.93 2200.4 2997.99L2527.96 2782.52L2422.05 2719.79L2420.15 2726.24L2419.05 2721.25ZM2812.97 2258.81L2877.66 2552.44L2877.69 2552.42L2877.86 2553.23L2891.93 2548.3L2879.3 2556.61L2879.75 2557.27L2878.8 2557.61L2881.4 2569.43L2881.17 2569.08C2892.89 2625.37 2904.59 2681.65 2916.3 2737.96L2917.99 2736.03C2943.91 2706.59 3053.36 2582.27 3151.33 2470.97L3158.63 2462.68L2812.97 2258.81ZM2699.73 1761.79L2699.97 1760.98L2701.87 1754.52L2702.97 1759.51L2706.96 1754.76L2705.04 1761.26L2704.8 1762.05L2843.67 1713.08L2651.97 1468.42L2650.86 1469.69L2498.59 1643.39L2699.73 1761.79ZM2859.54 2564.36L2858.06 2564.88L2850.83 2567.41L2843.6 2569.95L2836.37 2572.48L2829.14 2575.01L2821.91 2577.55L2814.68 2580.08L2431.45 2714.41L2426.46 2716.16L2532.93 2779.22L2859.54 2564.36ZM2256.74 1919.22L2694.6 1764.94L2495.02 1647.46C2415.6 1738.05 2336.17 1828.64 2256.74 1919.22ZM2459.66 2056.63L2588.67 2137.98L2589.26 2135.98L2695.81 1775.06L2459.66 2056.63ZM2337.46 2325.98L2421.13 2705.46L2585.77 2147.79L2337.46 2325.98ZM2079.57 2516.96C2103.94 2613.78 2128.28 2710.61 2152.59 2807.45L2414.85 2715.52L2079.57 2516.96ZM2967.11 3042.59L2532.14 2784.98L2220.51 2990.01L2209.68 2997.13L2205.62 2999.83C2405 3010.78 2604.31 3022.07 2803.62 3033.37L2806.79 3033.55L2808.21 3033.62L2967.11 3042.59ZM2195.09 2999.23L2148.47 2813.6L1698.46 2971.34L2195.09 2999.23ZM2537.13 2781.71L2973.5 3040.19L2928.55 2823.85L2911.58 2746.9L2906.98 2748.53L2909.69 2745.44L2908.32 2744.59L2910.87 2743.69L2909.9 2739.27L2910.75 2739.79L2872.32 2561.19L2870.27 2562.55L2859.44 2569.67L2848.61 2576.8L2837.78 2583.92L2537.13 2781.71ZM2984.44 3046.66L2987.66 3048.59L2983.6 3048.35L3004.05 3141.06L3253.32 2962.16L3248.09 2958.86L3123.82 2880.5L2986.92 3043.72L2989.05 3043.84L2985.88 3044.96L2984.44 3046.66ZM2919.08 2751.38L2934.63 2826.21L2982.26 3042.26L3119.97 2878.05L2919.08 2751.38ZM2040.09 3178.42L2193.69 3003.99L2191.51 3003.86L1697.04 2976.08L2040.09 3178.42ZM2970.49 3050.37C2779.62 3117.66 2588.73 3184.93 2397.85 3252.23C2463.4 3336.15 2528.91 3420.12 2594.45 3504.04L2631.31 3460.23L2739.7 3329.28L2738.76 3325.53L2741.48 3327.14L2970.49 3050.37ZM2392.23 3254.2L2252.97 3303.29L2583.35 3498.81L2392.23 3254.2ZM2198.11 3005.76L2044.04 3180.75L2245.7 3299.69L2245.87 3299.1L2247.78 3292.64L2248.87 3297.62L2252.86 3292.87L2250.96 3299.29L2389.34 3250.51L2198.11 3005.76ZM2040.46 3184.8L1799.59 3458.43L2240.7 3302.9L2040.46 3184.8ZM2394.97 3248.54L2965.72 3047.34L2204.2 3004.56C2267.87 3085.85 2331.44 3167.19 2394.97 3248.54ZM2588.72 3508.18L2251.44 3309.23L2317.63 3609.71L2588.72 3508.18ZM2598.52 3509.25L2605.35 3518L2594.63 3511.66L2593.99 3512.44L2593.65 3511.99L2361.35 3788.02L2814.99 3629.02L2741.47 3336.36L2634.12 3463.91L2598.06 3507.52L2600.02 3508.68L2598.52 3509.25ZM2586.19 3513.87C2496.99 3547.27 2407.79 3580.67 2318.59 3614.07L2356.6 3786.62L2586.19 3513.87ZM2313.46 3616.01C2255.61 3637.66 2197.77 3659.35 2139.93 3681.03L2415.98 4081.37L2352.92 3795.14L2349.6 3794.96L2342.64 3794.56L2352.07 3791.27L2313.46 3616.01ZM2139.64 3676.39L2312.5 3611.66L2246.8 3313.43L2139.64 3676.39ZM2005.58 3594.77L2134.58 3676.12L2241.72 3313.2L2005.58 3594.77ZM2528.98 970.806L2529.16 970.59L2529.11 970.361L2528.55 970.557L2528.98 970.806ZM2531.18 970.704L2531.6 972.351C2646.19 1040.18 2760.77 1108.02 2875.35 1175.86L3328.11 1017.17L3329.12 1013.84L2983.22 810.24L2532.55 969.152L2531.18 970.704ZM2533.43 979.625C2557.8 1076.44 2582.12 1173.28 2606.43 1270.12L2868.71 1178.19L2533.43 979.625ZM2607.52 1274.45L2651.97 1451.53L2653.92 1459.32L2654.26 1460.67L2981.8 1245.18L2873.7 1181.15L2607.52 1274.45ZM3420.98 1505.27L2986.13 1247.72C2877.27 1319.37 2768.41 1390.99 2659.48 1462.49L3420.98 1505.27ZM2648.96 1461.9L2602.33 1276.26L2152.32 1434L2646.77 1461.78L2648.96 1461.9ZM2880.34 1178.82L2986.84 1241.87L3313.39 1027.03L2880.34 1178.82ZM2991.13 1244.42C3136.56 1330.55 3281.96 1416.7 3427.36 1502.86L3379.16 1270.85L3365.49 1208.87L3362.28 1206.87L3364.83 1205.97L3363.88 1201.53L3364.88 1202.19L3327.66 1022.9L3324.12 1025.22C3213.1 1098.26 3102.14 1171.35 2991.13 1244.42ZM3438.14 1509.26L3441.52 1511.24L3437.66 1511.03L3458.02 1603.31L3707.31 1424.41L3702.05 1421.13L3577.78 1342.76L3440.58 1506.37L3442.92 1506.5L3439.43 1507.73L3438.14 1509.26ZM3338.01 1013.7L3345.77 1010.98L3341.33 1013.9L3819.62 1044.3L3713.68 554.22C3587.44 706.778 3461.12 859.331 3334.83 1011.86L3336.16 1013.59L3338.01 1013.7ZM3334.66 1018.29L3332.53 1019.7C3345.3 1081.08 3358.08 1142.46 3370.82 1203.86L3811.51 1048.59L3340.15 1018.64L3342.59 1021.78L3336.91 1018.44L3334.66 1018.29ZM3372.86 1213.5L3385.54 1274.68L3436.23 1504.54L3573.93 1340.33L3372.86 1213.5ZM2647.56 1466.64L2645.37 1466.52L2645.37 1466.52L2150.92 1438.74L2494.63 1641.07L2647.56 1466.64ZM3424.37 1513.04L2852.22 1714.79C2917.59 1798.29 2982.92 1881.81 3048.31 1965.29L3149.48 1845.09L3194.45 1790.76L3193.26 1786L3196.71 1788.04L3424.37 1513.04ZM2849.33 1711.09L3419.58 1510.01L2658.08 1467.23C2721.93 1548.44 2785.65 1629.75 2849.33 1711.09ZM2934.81 510.329L2933.7 511.598L2781.42 685.306L2984.76 804.973L3126.53 754.985L2934.81 510.329ZM2777.87 689.364C2698.12 780.346 2618.33 871.34 2538.54 962.32L2978.21 807.287L2777.87 689.364ZM2777.48 682.968L2930.4 508.554L2433.77 480.646L2777.48 682.968ZM3720.45 548.105L3725.75 548.416L3718.52 550.966L3823.49 1036.45L3999.3 440.915L3720.45 548.105ZM3707.21 554.949L3135.07 756.696C3200.72 840.532 3266.33 924.39 3331.98 1008.22L3707.21 554.949ZM3129.41 758.692L2989.77 807.926L3320.59 1002.66L3129.41 758.692ZM3132.19 752.989L3702.46 551.906L2940.93 509.137C3004.78 590.347 3068.5 671.658 3132.19 752.989ZM4004.34 441.33L3828.63 1036.43L4201.85 580.753L4004.34 441.33ZM4309.34 1076.44L3833.21 1049.89L4165.96 1246.79L4309.34 1076.44ZM4205.56 583.351L3827.62 1044.78L4309.49 1071.65L4310.37 1070.65L4309.9 1068.71L4311.31 1069.57L4313.27 1067.34L4206.95 584.351L4205.56 583.351ZM4217.9 586.649L4214.84 589.899L4213.54 588.994L4317.71 1062.27L4558.79 787.304L4217.9 586.649ZM3202.29 1799.64C3226.48 1895.62 3250.58 1991.64 3274.68 2087.67L3534.76 1996.5C3423.98 1930.84 3313.13 1865.24 3202.29 1799.64ZM3275.77 2091.99L3320.22 2269.08L3322.18 2276.86L3322.51 2278.21L3650.08 2062.71L3544.18 2000L3543.66 2001.77L3541.72 2008.25L3540.64 2003.24L3536.65 2007.96L3538.59 2001.48L3539.1 1999.69L3275.77 2091.99ZM4089.23 2322.81L3654.38 2065.26C3545.51 2136.92 3436.66 2208.54 3327.73 2280.04L4089.23 2322.81ZM3317.21 2279.45L3270.58 2093.81L2820.57 2251.55L3315.03 2279.32L3317.21 2279.45ZM3202.95 1791.75C3314.57 1857.79 3426.12 1923.87 3537.7 1989.93L3454.27 1611.4L3216.99 1781.67L3208.7 1787.63L3202.95 1791.75ZM3550.28 1997.38L3655.05 2059.44L3976.44 1848L3550.28 1997.38ZM3659.35 2061.99L4093.13 2318.92C4071.87 2222.41 4050.58 2125.91 4029.28 2029.38L4025.91 2030.57L4028.82 2027.28L4028.79 2027.13L4025.58 2025.13L4028.13 2024.23L4027.14 2019.82L4029.5 2021.29L3990.5 1844C3880.08 1916.65 3769.72 1989.33 3659.35 2061.99ZM4105.28 2326.12L4109.77 2328.78L4102.82 2328.4L4100.81 2328.3L4100.75 2328.36L4121.29 2421.6L4370.58 2242.69L4365.36 2239.39L4241.09 2161.03L4104.66 2323.68L4111.17 2324.06L4105.28 2326.12ZM3551.15 1990.76L3989.01 1837.29L3987.03 1828.25L3852.39 1633.03L3551.15 1990.76ZM3999.96 1833.45L4014.06 1828.51L4000.78 1837.24L4001.11 1838.96L4001.34 1839.27L4001.19 1839.32C4013.51 1898.44 4025.8 1957.56 4038.08 2016.69L4183.35 1851.01L4275.95 1745.39L3935.49 1544.98L3998.96 1833.18L3999.8 1832.64L3999.96 1833.45ZM4039.96 2025.6L4040.49 2028.22L4191.45 2123.43L4240.67 2154.47L4478.43 1871.02L4039.96 2025.6ZM4042.02 2035.48C4061.77 2130.56 4081.49 2225.68 4101.24 2320.76L4237.23 2158.58L4042.02 2035.48ZM4040.3 2054.12L4035.57 2031.42L4035.25 2031.2L4040.3 2054.12ZM4006.46 1891.34L3996.11 1841.42L3995.9 1841.18L3995.45 1841.34L4006.46 1891.34ZM3162.22 2458.64L3168.01 2452.05L3176.22 2442.73L3192.34 2424.4L3200.24 2415.44L3207.99 2406.64L3215.59 2398L3223.03 2389.55L3230.29 2381.3L3237.37 2373.27L3315.8 2284.18L3313.62 2284.06L2819.15 2256.28L3162.22 2458.64ZM4092.62 2330.59C3901.73 2397.89 3710.86 2465.15 3519.96 2532.42C3584.78 2615.42 3649.56 2698.44 3714.38 2781.44L3856.52 2612.54L3855.83 2612.09L3857.31 2611.05L3856.05 2606.05L3860 2608.41L3860.3 2608.03L4064.04 2365.11L4092.62 2330.59ZM3514.35 2534.42L3374.35 2583.76L3705.5 2779.08L3514.35 2534.42ZM3320.22 2285.96L3166.15 2460.94L3367.81 2579.89L3369.49 2574.25L3370.58 2579.23L3374.56 2574.49L3373.08 2579.51L3511.46 2530.73L3320.22 2285.96ZM3162.58 2465.02L2921.69 2738.62L3362.82 2583.13L3162.58 2465.02ZM3517.09 2528.76L4087.84 2327.56L3326.32 2284.77C3389.98 2366.04 3453.55 2447.38 3517.09 2528.76ZM3720.1 2788.77L3720.88 2789.77L3721.73 2790.28L3721.36 2790.42L3727.45 2798.19L3717.24 2792.16L3486.95 3065.61L3932.26 2909.55L3859.39 2619.48C3813.63 2674.79 3767.86 2730.09 3722.1 2785.4L3723.28 2784.95L3720.1 2788.77ZM4068.28 2367.07L3879.65 2595.02L4116.52 2425.01L4096.34 2333.57L4068.28 2367.07ZM3868.64 2608.3L3865.74 2611.81C3977.67 2678.05 4089.58 2744.34 4201.53 2810.6L4117.53 2429.68L3888.55 2593.99L3880.3 2599.93L3872 2605.89L3868.64 2608.3ZM2747.18 3336.7C2771.58 3433.51 2795.88 3530.33 2820.19 3627.18L3082.45 3535.26L2747.98 3337.17L2747.18 3336.7ZM2821.28 3631.51L2865.71 3808.59L2867.67 3816.37L2868.01 3817.74L2895.33 3799.74L3195.56 3602.24L3089.67 3539.53L3087.77 3545.98L3086.66 3540.98L3082.69 3545.68L3084.61 3539.22L2821.28 3631.51ZM3634.74 3862.33L3199.86 3604.78C3091.02 3676.43 2982.16 3748.06 2873.22 3819.55L3634.74 3862.33ZM2862.71 3818.98L2816.08 3633.34L2366.06 3791.06L2862.71 3818.98ZM2747.39 3330.63C2859.69 3397.11 2971.98 3463.59 3084.25 3530.08L3000.29 3149.14L2763.01 3319.41L2754.74 3325.36L2747.39 3330.63ZM3094.06 3535.89L3200.55 3598.97L3527.14 3384.08L3094.06 3535.89ZM3204.85 3601.51L3641.12 3859.94L3580.67 3569.03L3577.25 3566.88L3575.47 3568.92L3575.01 3566.75L3569.75 3568.58L3573.39 3564.44L3571.5 3563.26L3574.06 3562.35L3535.63 3383.76C3425.36 3456.33 3315.11 3528.92 3204.85 3601.51ZM3648.5 3864.3L3655.27 3868.3L3648.3 3867.91L3645.58 3867.75L3419.22 4137.68L3916.49 3780.83C3873.33 3753.57 3830.17 3726.35 3787 3699.13L3648.5 3864.3ZM3545.46 3372.96L3559.54 3368.02L3546.9 3376.34L3547.36 3377.01L3546.41 3377.35L3549.01 3389.15L3548.77 3388.82C3560.2 3443.7 3571.62 3498.6 3583.02 3553.49C3613.29 3519.13 3724.23 3393.12 3821.4 3282.74L3481.39 3082.22L3545.26 3372.16L3545.3 3372.15L3545.46 3372.96ZM3541.38 3379.96L3540.49 3380.55L3570.33 3519.23L3541.38 3379.96ZM3585.05 3563.21L3585.59 3565.82L3786.6 3692.6L4025.16 3408.12L3585.05 3563.21ZM3587.1 3573.09C3606.94 3668.57 3626.75 3764.06 3646.58 3859.58L3783.16 3696.71C3717.82 3655.5 3652.46 3614.29 3587.1 3573.09ZM4169.9 1249.12L4170.8 1249.65L4177.26 1247.23L4173.76 1251.4L4175.7 1252.55L4171.43 1254.15L3940.53 1528.39L4386.11 1372.21L4312.6 1079.58L4169.9 1249.12ZM4154.39 1260.54L4153.79 1260.76L4146.47 1263.5L4139.16 1266.24L4131.84 1268.98L4124.53 1271.72L4117.25 1274.45L4109.93 1277.19L4102.62 1279.93L4095.3 1282.67L4087.98 1285.41L4080.7 1288.13L4073.39 1290.87L3894.28 1357.96L3931.22 1525.68L4154.39 1260.54ZM4162.49 1250.92L3826.95 1052.36L3893.31 1353.59L4160.22 1253.62L4162.49 1250.92ZM3889.15 1359.88L3722.59 1422.26L3715.61 1424.88L3853.45 1624.77L3923.83 1541.19L3923.21 1538.29L3920.74 1538.15L3913.75 1537.77L3919.68 1535.7L3915.15 1533.03L3922.14 1533.41L3924.61 1533.55L3926.82 1530.92L3889.15 1359.88ZM3547.8 1987.73L3849.75 1629.16L3712.44 1430.03L3547.8 1987.73ZM3715.32 1420.26L3888.19 1355.51L3822.46 1057.31L3715.93 1418.23L3715.32 1420.26ZM3925.05 1546.75L3856.09 1628.64L3983.88 1813.92L3925.05 1546.75ZM3815.99 1051.73L3373.51 1207.63L3577.41 1336.2L3815.99 1051.73ZM3581.26 1338.63L3710.25 1419.98L3710.83 1417.97L3817.41 1057.06L3581.26 1338.63ZM3453.25 1606.73L3433.08 1515.31L3210.04 1781.27L3453.25 1606.73ZM3459.03 1607.98L3542.73 1987.45L3707.38 1429.77L3459.03 1607.98ZM3708.39 2788.56L3372.98 2590.1L3439.34 2891.32L3488.18 2873.03L3705.94 2791.45L3708.39 2788.56ZM3708.84 2795.1L3708.73 2795.15L3538.97 2996.82L3708.84 2795.1ZM3700.11 2798.36L3699.81 2798.47L3692.5 2801.23L3685.19 2803.97L3677.87 2806.7L3670.55 2809.44L3663.27 2812.16L3655.96 2814.92L3648.64 2817.66L3440.3 2895.71L3477.21 3063.22L3700.11 2798.36ZM3435.16 2897.62L3268.59 2960L3261.62 2962.61L3399.45 3162.5L3472 3076.38L3470.74 3070.91L3472.79 3068.44L3435.16 2897.62ZM3093.81 3525.47L3395.76 3166.9L3258.46 2967.78L3093.81 3525.47ZM3261.34 2958L3434.19 2893.24L3368.51 2595.04L3261.94 2955.98L3261.34 2958ZM3473.25 3081.89L3402.12 3166.36L3536.25 3360.89L3495.88 3173.23L3537.67 3362.95L3473.25 3081.89ZM3398.42 3170.76L3095.25 3530.76L3534.16 3376.92L3531.25 3363.39L3398.42 3170.76ZM3536.25 3360.89L3536.26 3360.92L3537.67 3362.95L3536.26 3360.92L3536.25 3360.89ZM3539.34 3375.13L3539.3 3375.08L3539.31 3375.11L3539.34 3375.13ZM3362.01 2589.44L2919.54 2745.33L3052.54 2829.23L3123.43 2873.93L3362.01 2589.44ZM3127.27 2876.35L3256.28 2957.73L3256.87 2955.71L3363.41 2594.78L3127.27 2876.35ZM2999.26 3144.47L2979.1 3053.03L2756.04 3319.02L2999.26 3144.47ZM3005.06 3145.69L3088.75 3525.2L3253.38 2967.52L3005.06 3145.69ZM4492.78 1865.96L4789.64 2041.6L4822.62 2061.04L4631.43 1817.05L4492.78 1865.96ZM4837.21 2069.78L4838.97 2070.83L4837.66 2071.31L4844.61 2080.14L4833.86 2073.81L4833.23 2074.59L4833.09 2074.39L4602.59 2348.1L5054.36 2189.74L4980.85 1897.11L4939.24 1946.57L4837.21 2069.78ZM4824.05 2076.43L4775.39 2094.64L4557.58 2176.23L4595.4 2348.05L4824.05 2076.43ZM4827.68 2070.32L4782.42 2043.54L4490.49 1871.68L4556.61 2171.85L4827.68 2070.32ZM4552.42 2178.16L4385.85 2240.54L4378.88 2243.17L4516.72 2443.06L4590.22 2355.78L4588.96 2355.72L4582.01 2355.32L4587.93 2353.24L4583.45 2350.58L4590.39 2350.96L4590.49 2350.98L4552.42 2178.16ZM4211.07 2806L4513.01 2447.44L4375.71 2248.32L4211.07 2806ZM4378.62 2238.52L4551.46 2173.8L4485.77 1875.57L4378.62 2238.52ZM4592.39 2360.21L4519.39 2446.88L4652.6 2640.08L4592.39 2360.21ZM4515.69 2451.29L4212.51 2811.29L4411.99 2741.37L4656.04 2655.86L4655.64 2654.27L4652.48 2649.69L4515.69 2451.29ZM4203.91 2821.52L4199.95 2826.21L4201.85 2819.76L3938.54 2912.04L3982.98 3089.12L3984.95 3096.93L3985.28 3098.27L4312.83 2882.77L4206.92 2820.03L4206.93 2820.06L4205.03 2826.52L4203.91 2821.52ZM4597.84 2359.08L4662.55 2652.72L4662.54 2652.69L4662.7 2653.5L4676.8 2648.55L4664.21 2656.88L4664.61 2657.55L4663.67 2657.88L4666.25 2669.69L4666.03 2669.32C4677.79 2725.64 4689.48 2781.93 4701.18 2838.24L4702.89 2836.3C4729.45 2806.11 4843.74 2676.27 4943.52 2562.96L4597.84 2359.08ZM4484.61 1862.07L4484.84 1861.24L4486.74 1854.79L4487.85 1859.76L4491.83 1855.02L4489.9 1861.52L4489.66 1862.31L4628.56 1813.36L4436.83 1568.69L4435.72 1569.96L4429.33 1577.26L4283.48 1743.65L4484.61 1862.07ZM4644.44 2664.63L4642.93 2665.14L4635.74 2667.68L4628.5 2670.21L4621.26 2672.73L4614.03 2675.29L4606.79 2677.82L4599.55 2680.35L4216.32 2814.68L4211.33 2816.42L4317.81 2879.5L4644.44 2664.63ZM4041.62 2019.48L4479.46 1865.22L4279.89 1747.73C4200.49 1838.32 4121.07 1928.9 4041.62 2019.48ZM4244.53 2156.92L4373.52 2238.27L4480.67 1875.32L4244.53 2156.92ZM4122.34 2426.25L4206 2805.73L4370.65 2248.05L4122.34 2426.25ZM3864.45 2617.23C3888.81 2714.05 3913.13 2810.86 3937.46 2907.7L4199.72 2815.79L3864.45 2617.23ZM4751.98 3142.87L4317.13 2885.31C4208.29 2956.96 4099.44 3028.58 3990.49 3100.08C4189.9 3111.02 4389.19 3122.35 4588.48 3133.62L4591.68 3133.82L4593.06 3133.88C4646.04 3136.86 4699.04 3139.87 4751.98 3142.87ZM3979.96 3099.52L3933.34 2913.88L3483.33 3071.62L3979.96 3099.52ZM4322.1 2882.04L4758.37 3140.47L4713.25 2923.3L4696.47 2847.18L4691.86 2848.8L4694.6 2845.7L4693.24 2844.85L4695.74 2843.94L4694.79 2839.51L4695.66 2840.06L4657.18 2661.45L4655.16 2662.82C4544.13 2735.84 4433.14 2808.95 4322.1 2882.04ZM4769.31 3146.94L4772.52 3148.84L4768.49 3148.63L4788.9 3241.31L5038.19 3062.41L5032.98 3059.13L4908.67 2980.76L4771.81 3143.99L4773.93 3144.12L4770.78 3145.23L4769.31 3146.94ZM4703.98 2851.62L4719.39 2925.86L4767.16 3142.54L4904.86 2978.33L4703.98 2851.62ZM3824.98 3278.7L3855.12 3244.46L3863.01 3235.49L3870.76 3226.69L3878.36 3218.06L3885.79 3209.61L3893.06 3201.37L3978.56 3104.24L3976.36 3104.11L3481.91 3076.35L3824.98 3278.7ZM4755.38 3150.65C4564.51 3217.91 4373.62 3285.21 4182.72 3352.51C4248.28 3436.43 4313.76 3520.37 4379.33 3604.32L4416.21 3560.49L4524.56 3429.53L4523.62 3425.78L4526.35 3427.39L4755.38 3150.65ZM4177.1 3354.48L4037.83 3403.58L4368.23 3599.08L4177.1 3354.48ZM3982.97 3106.01L3828.91 3281L4030.58 3399.94L4030.75 3399.38L4032.64 3392.9L4033.76 3397.89L4037.74 3393.15L4035.83 3399.58L4174.23 3350.79L3982.97 3106.01ZM3825.34 3285.07L3584.46 3558.68L4025.59 3403.18L3825.34 3285.07ZM4179.84 3348.79L4750.63 3147.6L3989.06 3104.84C4052.75 3186.09 4116.31 3267.43 4179.84 3348.79ZM4373.59 3608.46L4036.3 3409.52L4102.53 3709.98L4373.59 3608.46ZM4383.39 3609.5L4390.21 3618.25L4379.5 3611.91L4378.86 3612.69L4378.53 3612.27L4146.22 3888.27L4599.83 3729.28L4526.36 3436.63L4419 3564.19L4382.92 3607.77L4384.87 3608.94L4383.39 3609.5ZM4371.07 3614.15C4281.86 3647.55 4192.69 3680.94 4103.48 3714.34L4141.48 3886.89L4371.07 3614.15ZM4098.32 3716.27C4040.49 3737.94 3982.64 3759.6 3924.8 3781.28L4200.85 4181.62L4137.8 3895.42L4134.47 3895.21L4127.52 3894.84L4136.94 3891.53L4098.32 3716.27ZM3924.52 3776.67L4097.36 3711.91L4031.67 3413.68L3924.52 3776.67ZM3790.45 3695.02L3919.43 3776.37L4026.58 3413.46L3790.45 3695.02ZM4313.85 1071.08L4314.05 1070.85L4313.99 1070.63L4313.43 1070.83L4313.85 1071.08ZM4316.07 1070.96L4316.49 1072.61C4431.05 1140.45 4545.65 1208.28 4660.22 1276.13L5112.96 1117.44L5114.01 1114.1L4768.11 910.495L4317.44 1069.41L4316.07 1070.96ZM4318.3 1079.89L4391.28 1370.39L4653.58 1278.46L4318.3 1079.89ZM4392.36 1374.72L4407.5 1435L4409.46 1442.79L4411.41 1450.58L4413.37 1458.36L4415.32 1466.15L4417.28 1473.93L4434.89 1544.01L4436.84 1551.8L4438.8 1559.58L4439.13 1560.94L4766.69 1345.44L4658.59 1281.4L4392.36 1374.72ZM5205.88 1605.54L4770.99 1347.99C4662.15 1419.63 4553.3 1491.25 4444.35 1562.76L5205.88 1605.54ZM4433.85 1562.16L4387.19 1376.54L3937.18 1534.27L4431.65 1562.04L4433.85 1562.16ZM4665.23 1279.08L4771.69 1342.15L5098.29 1127.29L4665.23 1279.08ZM4775.99 1344.7C4921.42 1430.82 5066.85 1516.96 5212.25 1603.11L5163.94 1370.59L5150.34 1309.14L5147.21 1307.12L5149.72 1306.23L5148.77 1301.8L5149.77 1302.44L5112.52 1123.18L5109.01 1125.48C4997.99 1198.52 4887 1271.63 4775.99 1344.7ZM5223.04 1609.52L5226.38 1611.52L5222.52 1611.3L5242.87 1703.57L5492.16 1524.67L5486.95 1521.39L5362.63 1443.02L5225.44 1606.65L5227.81 1606.76L5224.29 1608.01L5223.04 1609.52ZM5122.86 1113.97L5130.66 1111.23L5126.19 1114.18L5604.52 1144.56L5498.57 654.482C5372.3 807.051 5246.01 959.586 5119.72 1112.12L5121.06 1113.84L5122.86 1113.97ZM5119.52 1118.56L5117.39 1119.97C5130.16 1181.35 5142.94 1242.74 5155.71 1304.12L5596.4 1148.86L5125.01 1118.91L5127.45 1122.05L5121.77 1118.7L5119.52 1118.56ZM5157.72 1313.77L5170.28 1374.33L5221.07 1604.79L5358.83 1440.59L5157.72 1313.77ZM4432.42 1566.91L4430.26 1566.78L4430.25 1566.77L3935.78 1539.01L4279.51 1741.33L4432.42 1566.91ZM5209.23 1613.31L4637.09 1815.06C4702.45 1898.56 4767.79 1982.1 4833.22 2065.56L4934.35 1945.36L4979.3 1891.02L4978.11 1886.26L4981.57 1888.31L5209.23 1613.31ZM4634.21 1811.34L5204.47 1610.26L4442.95 1567.49C4506.8 1648.7 4570.52 1730.02 4634.21 1811.34ZM4719.7 610.588L4718.6 611.853L4712.17 619.175L4566.32 785.564L4769.62 905.248L4911.39 855.26L4719.7 610.588ZM4562.77 789.625C4482.98 880.626 4403.19 971.613 4323.44 1062.58L4763.1 907.545L4562.77 789.625ZM4562.34 783.243L4715.29 608.809L4218.65 580.906L4562.34 783.243ZM5505.31 648.372L5510.65 648.672L5503.42 651.225L5608.38 1136.71L5784.19 541.178L5505.31 648.372ZM5492.1 655.205L4919.96 856.955C4985.58 940.807 5051.19 1024.67 5116.84 1108.49L5492.1 655.205ZM4914.3 858.95L4774.67 908.185L5105.49 1102.92L4914.3 858.95ZM4917.05 853.267L5487.32 652.187L4725.79 609.407C4789.64 690.62 4853.36 771.931 4917.05 853.267ZM5789.19 541.597L5613.48 1136.69L5986.75 681.011L5789.19 541.597ZM6094.19 1176.69L5618.07 1150.16L5950.82 1347.06L6094.19 1176.69ZM5990.42 683.623L5612.47 1145.05L6094.39 1171.93L6095.27 1170.9L6094.76 1168.99L6096.2 1169.81L6098.18 1167.62L5991.85 684.615L5990.42 683.623ZM6002.79 686.905L5999.7 690.169L5998.44 689.252L6102.6 1162.53L6197.68 1054.09L6343.69 887.565L6002.79 686.905ZM4987.18 1899.89C5011.34 1995.89 5035.46 2091.91 5059.58 2187.93L5319.62 2096.78C5208.84 2031.12 5098.03 1965.51 4987.18 1899.89ZM5060.65 2192.26L5105.1 2369.35L5107.05 2377.12L5107.37 2378.47L5434.94 2162.99L5329.03 2100.26L5328.51 2102.03L5326.57 2108.51L5325.5 2103.52L5321.55 2108.22L5323.48 2101.75L5324 2099.97L5060.65 2192.26ZM5874.13 2423.08L5439.24 2165.53C5330.4 2237.18 5221.54 2308.77 5112.6 2380.3L5874.13 2423.08ZM5102.1 2379.69L5055.47 2194.06L4605.43 2351.81L5099.91 2379.6L5102.1 2379.69ZM4987.84 1892C5099.43 1958.07 5211 2024.1 5322.55 2090.18L5239.13 1711.68L5001.85 1881.95L4993.55 1887.88L4987.84 1892ZM5335.18 2097.63L5439.94 2159.68L5761.34 1948.27L5335.18 2097.63ZM5444.28 2162.23C5588.83 2247.88 5733.46 2333.52 5878.03 2419.19C5856.72 2322.67 5835.47 2226.15 5814.14 2129.66L5810.8 2130.83L5813.67 2127.53L5813.65 2127.41L5810.48 2125.39L5813.03 2124.5L5812.04 2120.08L5814.39 2121.53L5775.37 1944.28C5664.98 2016.9 5554.61 2089.58 5444.28 2162.23ZM5890.18 2426.39L5894.63 2429.06L5887.71 2428.65L5885.69 2428.54L5885.63 2428.6L5906.23 2521.85L6155.48 2342.96L6150.22 2339.68L6025.94 2261.29L5889.51 2423.94L5896.02 2424.31L5890.18 2426.39ZM5336.04 2091.01L5773.9 1937.54L5771.89 1928.53L5637.25 1733.31L5336.04 2091.01ZM5784.85 1933.7L5798.95 1928.76L5785.64 1937.53L5786.01 1939.23L5786.24 1939.53L5786.09 1939.6C5798.37 1998.71 5810.69 2057.83 5822.97 2116.94L5885.96 2045.12L6060.81 1845.66L5720.34 1645.25L5783.85 1933.43L5784.69 1932.89L5784.85 1933.7ZM5824.85 2125.87L5825.38 2128.49L5976.3 2223.68L6025.57 2254.74L6263.31 1971.26L5824.85 2125.87ZM5826.92 2135.75C5846.67 2230.83 5866.41 2325.91 5886.12 2421L6022.1 2258.87L5826.92 2135.75ZM5100.7 2384.44L5098.51 2384.32L4604.02 2356.54L4947.11 2558.88L4961.13 2542.99L4969.19 2533.76L4977.23 2524.66L4985.12 2515.71L4992.85 2506.89L5000.47 2498.28L5007.9 2489.83L5015.15 2481.57L5100.7 2384.44ZM5825.22 2154.62L5820.42 2131.68L5820.11 2131.49L5825.22 2154.62ZM5791.35 1991.68L5780.96 1941.68L5780.79 1941.42L5780.35 1941.59L5791.35 1991.68ZM5877.47 2430.85C5686.63 2498.16 5495.74 2565.46 5304.84 2632.74C5369.69 2715.72 5434.43 2798.72 5499.28 2881.71L5641.41 2712.78L5640.69 2712.37L5642.16 2711.31L5640.9 2706.31L5644.89 2708.65L5645.19 2708.27L5849.76 2464.34L5877.47 2430.85ZM5299.21 2634.71L5159.28 2684.05L5490.4 2879.35L5299.21 2634.71ZM5105.12 2386.22L4951.04 2561.22L5152.69 2680.17L5154.35 2674.5L5155.48 2679.5L5159.4 2674.75L5157.92 2679.78L5296.34 2631.01L5105.12 2386.22ZM4947.46 2565.3L4706.6 2838.89L5147.7 2683.4L4947.46 2565.3ZM5301.95 2629.01L5872.74 2427.83L5111.2 2385.02C5174.86 2466.31 5238.43 2547.66 5301.95 2629.01ZM5504.95 2889.03L5505.77 2890.04L5506.63 2890.55L5506.25 2890.67L5512.35 2898.46L5502.09 2892.42L5271.83 3165.89L5717.16 3009.81L5686.05 2885.92L5644.28 2719.72L5506.95 2885.66L5508.18 2885.22L5504.95 2889.03ZM5854.13 2466.2L5664.5 2695.28L5901.42 2525.28L5881.24 2433.84L5854.13 2466.2ZM5653.53 2708.57L5650.63 2712.05C5762.54 2778.34 5874.48 2844.6 5986.39 2910.89L5902.43 2529.95L5673.45 2694.26L5665.16 2700.22L5656.9 2706.16L5653.53 2708.57ZM4532.06 3436.94C4556.46 3533.75 4580.76 3630.61 4605.09 3727.45L4867.35 3635.53L4532.85 3437.42L4532.06 3436.94ZM4606.17 3731.78L4650.61 3908.87L4652.52 3916.66L4652.89 3917.99L4679.48 3900.5L4980.46 3702.51L4874.51 3639.79L4872.61 3646.25L4871.52 3641.24L4867.58 3645.96L4869.5 3639.46L4606.17 3731.78ZM5419.64 3962.6L4984.75 3705.05C4875.92 3776.7 4767.02 3848.31 4658.08 3919.84L5419.64 3962.6ZM4647.58 3919.23L4600.95 3733.6L4150.94 3891.33L4647.58 3919.23ZM4532.27 3430.88C4644.57 3497.35 4756.88 3563.86 4869.15 3630.35L4785.14 3249.39L4547.87 3419.67L4539.58 3425.62L4532.27 3430.88ZM4878.96 3636.16L4985.43 3699.24L5312.02 3484.37L4878.96 3636.16ZM4989.71 3701.76L5425.98 3960.19L5365.56 3669.3L5362.15 3667.15L5360.35 3669.16L5359.89 3666.99L5354.62 3668.87L5358.26 3664.73L5356.39 3663.53L5358.93 3662.61L5320.51 3484.04C5210.25 3556.57 5100 3629.19 4989.71 3701.76ZM5433.39 3964.54L5440.13 3968.56L5433.19 3968.18L5430.45 3968.04L5204.07 4237.94L5701.38 3881.07C5658.21 3853.82 5615.06 3826.59 5571.88 3799.38L5433.39 3964.54ZM5330.36 3473.22L5344.43 3468.3L5331.78 3476.61L5332.27 3477.27L5331.29 3477.6L5333.88 3489.44L5333.62 3489.08C5345.09 3543.97 5356.48 3598.86 5367.92 3653.76C5398.18 3619.37 5509.08 3493.38 5606.26 3382.99L5266.26 3182.47L5330.17 3472.43L5330.36 3473.22ZM5326.28 3480.23L5325.38 3480.83L5355.28 3619.82L5326.28 3480.23ZM5369.94 3663.45L5370.48 3666.09L5571.47 3792.85L5810.05 3508.36L5369.94 3663.45ZM5372.01 3673.35C5391.82 3768.84 5411.67 3864.32 5431.48 3959.81L5568.03 3796.96C5502.71 3755.74 5437.3 3714.59 5372.01 3673.35ZM5954.79 1349.38L5955.66 1349.92L5962.16 1347.5L5958.65 1351.65L5960.6 1352.81L5956.33 1354.42L5725.38 1628.66L6171.01 1472.47L6116.15 1254.09L6097.47 1179.86L5954.79 1349.38ZM5939.28 1360.79L5938.64 1361.02L5931.34 1363.78L5924.05 1366.5L5916.7 1369.25L5909.42 1371.97L5902.11 1374.73L5894.78 1377.44L5887.47 1380.2L5880.19 1382.92L5872.87 1385.65L5865.57 1388.42L5858.28 1391.13L5850.93 1393.89L5679.16 1458.21L5716.11 1625.93L5939.28 1360.79ZM5947.34 1351.19L5611.84 1152.62L5678.21 1453.85L5945.11 1353.87L5947.34 1351.19ZM5674.01 1460.16L5507.45 1522.54L5500.5 1525.13L5638.35 1725.05L5708.73 1641.45L5708.07 1638.56L5705.6 1638.43L5698.64 1638.02L5704.57 1635.95L5700.05 1633.3L5707 1633.68L5709.46 1633.81L5711.72 1631.18L5674.01 1460.16ZM5332.66 2088L5634.6 1729.44L5497.29 1530.29L5332.66 2088ZM5500.16 1520.52L5673.04 1455.77L5607.32 1157.58L5500.78 1518.49L5500.16 1520.52ZM5709.95 1647.02L5640.98 1728.89L5768.74 1914.19L5709.95 1647.02ZM5600.85 1152L5158.4 1307.88L5362.3 1436.46L5600.85 1152ZM5366.11 1438.89L5495.14 1520.23L5495.73 1518.24L5602.27 1157.34L5366.11 1438.89ZM5238.11 1707.01L5217.97 1615.56L4994.9 1881.55L5238.11 1707.01ZM5243.93 1708.25L5327.6 2087.73L5492.24 1530.05L5243.93 1708.25ZM5485.01 2898.63L5484.67 2898.76L5477.36 2901.49L5470.07 2904.21L5462.72 2906.96L5455.45 2909.71L5448.13 2912.44L5440.81 2915.18L5433.49 2917.91L5426.22 2920.66L5225.16 2995.96L5262.05 3163.48L5485.01 2898.63ZM5493.24 2888.82L5157.87 2690.34L5224.24 2991.59L5490.84 2891.72L5493.24 2888.82ZM5493.74 2895.37L5493.63 2895.42L5323.84 3097.1L5493.74 2895.37ZM5220.03 2997.87L5053.48 3060.28L5046.49 3062.89L5184.33 3262.78L5254.89 3179L5254.22 3175.9L5251.7 3175.76L5244.79 3175.37L5250.68 3173.31L5246.19 3170.62L5253.18 3171L5255.61 3171.15L5257.69 3168.71L5220.03 2997.87ZM4878.68 3625.72L5180.62 3267.15L5043.32 3068.03L4878.68 3625.72ZM5046.2 3058.26L5219.07 2993.51L5153.34 2695.31L5046.81 3056.23L5046.2 3058.26ZM5256.08 3184.61L5187.02 3266.63L5313.06 3449.5L5256.08 3184.61ZM5183.27 3271.02L4880.08 3631.02L5319.04 3477.2L5316.13 3463.67L5183.27 3271.02ZM5322.56 3463.23L5280.71 3273.26L5321.12 3461.18L5322.56 3463.23ZM5324.21 3475.37L5324.16 3475.36L5324.21 3475.37ZM5146.88 2689.73L4704.43 2845.61L4908.33 2974.2L5146.88 2689.73ZM4912.14 2976.63L5041.17 3057.97L5041.76 3055.98L5148.29 2695.06L4912.14 2976.63ZM4784.14 3244.75L4763.97 3153.32L4540.93 3419.29L4784.14 3244.75ZM4789.95 3245.97L4873.62 3625.44L5038.27 3067.79L4789.95 3245.97ZM6277.63 1966.22L6574.06 2141.59L6607.47 2161.3L6416.32 1917.29L6277.63 1966.22ZM6622.11 2170.05L6623.87 2171.1L6622.56 2171.57L6629.51 2180.41L6618.76 2174.08L6618.13 2174.86L6617.97 2174.63L6387.46 2448.39L6839.26 2290.01L6765.71 1997.4L6724.28 2046.67L6622.11 2170.05ZM6612.53 2170.58L6567.01 2143.61L6275.34 1971.94L6341.48 2272.13L6612.53 2170.58ZM6608.93 2176.67L6560.62 2194.78L6547.92 2199.54L6342.43 2276.49L6380.3 2448.32L6608.93 2176.67ZM6337.32 2278.43L6170.7 2340.79L6163.77 2343.42L6301.61 2543.3L6375.1 2456.02L6373.85 2455.96L6366.89 2455.56L6372.82 2453.49L6368.3 2450.84L6375.29 2451.23L6375.38 2451.22L6337.32 2278.43ZM5995.97 2906.27L6297.91 2547.71L6160.61 2348.59L5995.97 2906.27ZM6163.48 2338.81L6336.35 2274.04L6270.65 1975.82L6164.1 2336.78L6163.48 2338.81ZM6377.29 2460.48L6304.25 2547.17L6437.5 2740.35L6377.29 2460.48ZM6300.59 2551.56L5997.41 2911.56L6440.89 2756.11L6440.54 2754.54L6300.59 2551.56ZM5988.79 2921.76L5984.82 2926.5L5986.74 2920L5723.44 3012.31C5739.02 3074.36 5754.58 3136.46 5770.13 3198.53L6097.7 2983.05L5991.82 2920.3L5989.92 2926.76L5988.79 2921.76ZM6382.73 2459.35L6447.41 2752.97L6447.44 2752.96L6447.6 2753.77L6461.7 2748.82L6449.06 2757.14L6449.51 2757.82L6448.57 2758.15L6451.15 2769.96L6450.9 2769.61C6462.64 2825.9 6474.33 2882.18 6486.03 2938.5C6508.98 2912.43 6626.3 2779.18 6728.37 2663.22L6382.73 2459.35ZM6269.46 1962.33L6269.74 1961.51L6271.63 1955.03L6272.72 1960.04L6276.73 1955.29L6274.8 1961.79L6274.56 1962.58L6413.41 1913.61L6221.72 1668.94L6220.61 1670.21L6214.19 1677.54L6068.35 1843.95L6269.46 1962.33ZM6429.29 2764.89L5996.2 2916.7L6102.69 2979.74L6429.29 2764.89ZM5826.51 2119.74L6264.35 1965.48L6064.78 1847.98C5985.34 1938.58 5905.92 2029.16 5826.51 2119.74ZM6029.42 2257.16L6158.41 2338.51L6159 2336.52L6265.57 1975.59L6029.42 2257.16ZM5907.19 2526.51L5990.89 2905.97L6155.51 2348.33L5907.19 2526.51ZM5649.35 2717.5C5673.7 2814.29 5698 2911.15 5722.36 3007.97L5984.62 2916.05L5649.35 2717.5ZM6536.88 3243.14L6101.92 2985.53L5790.26 3190.54L5779.41 3197.66L5775.39 3200.35C5973.1 3211.2 6170.71 3222.41 6368.32 3233.62L6373.38 3233.89L6380.56 3234.29C6432.69 3237.23 6484.77 3240.16 6536.88 3243.14ZM5764.81 3199.77L5718.22 3014.12L5268.18 3171.88L5764.81 3199.77ZM6106.88 2982.24L6543.27 3240.74L6482.66 2949.16L6482.46 2949.39L6481.49 2945L6442.08 2761.72L6440.01 2763.08L6429.22 2770.21L6418.37 2777.34L6407.52 2784.47L6106.88 2982.24ZM5609.86 3378.94L5639.98 3344.72L5647.86 3335.75L5655.62 3326.98L5663.21 3318.31L5670.64 3309.87L5677.94 3301.61L5685.05 3293.59L5691.86 3285.78L5763.42 3204.52L5761.26 3204.38L5266.77 3176.6L5609.86 3378.94ZM6540.28 3250.92C6349.37 3318.19 6158.51 3385.48 5967.61 3452.75C6033.18 3536.7 6098.66 3620.64 6164.22 3704.56L6201.07 3660.75L6540.28 3250.92ZM5961.99 3454.72L5822.72 3503.82L6153.08 3699.34L6072.9 3596.68L5961.99 3454.72ZM5767.84 3206.3L5613.8 3381.28L5815.44 3500.23L5815.64 3499.62L5817.54 3493.17L5818.62 3498.15L5822.63 3493.4L5820.72 3499.85L5959.08 3451.05L5767.84 3206.3ZM5610.2 3385.33L5369.35 3658.95L5810.49 3503.45L5610.2 3385.33ZM5964.7 3449.08L6535.48 3247.86L5773.96 3205.11C5837.6 3286.35 5901.21 3367.7 5964.7 3449.08ZM6158.44 3708.71L5821.19 3509.76L5887.38 3810.24L6158.44 3708.71ZM6155.96 3714.39C6066.75 3747.79 5977.54 3781.2 5888.33 3814.6L5926.33 3987.15L6155.96 3714.39ZM5883.17 3816.52C5825.35 3838.2 5767.5 3859.88 5709.68 3881.55L5985.7 4281.88L5922.68 3995.66L5919.33 3995.5L5912.37 3995.1L5921.78 3991.79L5883.17 3816.52ZM5709.38 3876.92L5882.21 3812.17L5816.56 3513.95L5709.38 3876.92ZM5575.33 3795.3L5704.32 3876.65L5811.48 3513.73L5575.33 3795.3ZM6098.75 1171.34L6098.94 1171.11L6098.89 1170.9L6098.33 1171.09L6098.75 1171.34ZM6100.93 1171.23L6101.35 1172.88C6215.95 1240.72 6330.55 1308.54 6445.12 1376.4L6897.86 1217.71L6898.87 1214.37L6552.97 1010.76L6102.29 1169.67L6100.93 1171.23ZM6103.2 1180.15L6176.18 1470.65L6438.47 1378.71L6103.2 1180.15ZM6177.25 1474.98L6190.4 1527.48L6192.4 1535.26L6194.31 1543.06L6196.31 1550.85L6198.26 1558.62L6219.78 1644.27L6221.7 1652.07L6223.7 1659.85L6223.99 1661.22L6551.58 1445.69L6443.45 1381.68L6177.25 1474.98ZM6990.73 1705.8L6555.89 1448.26C6447.04 1519.88 6338.19 1591.51 6229.24 1663L6990.73 1705.8ZM6218.7 1662.41L6172.07 1476.78L5722.03 1634.53L6216.51 1662.32L6218.7 1662.41ZM6450.08 1379.34L6556.54 1442.4L6883.14 1227.55L6450.08 1379.34ZM6560.89 1444.95C6706.31 1531.07 6851.71 1617.24 6997.15 1703.38L6897.37 1223.43L6893.87 1225.76C6782.89 1298.8 6671.85 1371.89 6560.89 1444.95ZM6907.76 1214.23L6915.56 1211.51L6911.05 1214.45L7389.37 1244.82L7283.42 754.743C7157.2 907.331 7030.91 1059.85 6904.58 1212.39L6905.95 1214.1L6907.76 1214.23ZM6217.31 1667.16L6215.11 1667.04L5720.64 1639.28L6064.36 1841.6L6217.31 1667.16ZM6994.12 1713.58L6421.98 1915.3C6487.35 1998.83 6552.67 2082.34 6618.07 2165.82L6719.35 2045.48L6994.12 1713.58ZM6419.1 1911.61L6989.34 1710.55L6227.85 1667.75C6291.69 1748.96 6355.37 1830.28 6419.1 1911.61ZM6504.56 710.851L6503.49 712.117L6497.02 719.445L6351.21 885.828L6554.51 1005.5L6696.29 955.524L6504.56 710.851ZM6347.62 889.898C6267.88 980.885 6188.08 1071.85 6108.3 1162.85L6547.95 1007.81L6347.62 889.898ZM6347.23 883.493L6350.85 879.395L6500.14 709.076L6003.5 681.173L6347.23 883.493ZM7277 755.485L6704.82 957.23C6770.47 1041.07 6836.05 1124.94 6901.73 1208.75L7277 755.485ZM6699.16 959.217L6559.52 1008.45L6890.34 1203.18L6699.16 959.217ZM6701.95 953.536L7272.17 752.445L6510.68 709.668C6574.54 790.886 6638.25 872.189 6701.95 953.536ZM6845.54 2292.5L6892.27 2478.74L7551.4 2045.12L6845.54 2292.5ZM6887 2479.96L6840.33 2294.35L6390.28 2452.07L6887 2479.96ZM6731.97 2659.17L6885.55 2484.7L6388.88 2456.82L6731.97 2659.17ZM6889.97 2486.47L6735.89 2661.48L7275.3 2979.62L6889.97 2486.47ZM6391.02 3832.04L6437.79 4018.26L7096.87 3584.62L6391.02 3832.04ZM6432.48 4019.5L6385.8 3833.85L5935.79 3991.59L6432.48 4019.5Z" fill="#D1926B"></path> </svg> 